<svg width="855" height="233" viewBox="0 0 855 233" fill="none" xmlns="http://www.w3.org/2000/svg">
    <path d="M87.5603 45.3628L106.295 148.976H68.8259L87.5603 45.3628Z" fill="url(#paint0_linear)"/>
    <path d="M50.4117 42.7854L86.5302 144.852L122.456 42.7854H160.506V183.513H131.437V145.045L134.334 78.6439L96.3806 183.513H76.4865L38.6296 78.7406L41.5267 145.045V183.513H12.5547V42.7854H50.4117Z" fill="black"/>
    <path d="M213.171 148.46V78.0963H237.266C245.216 78.0963 251.269 79.691 255.423 82.8806C259.574 86.0702 261.651 90.8224 261.651 97.1371C261.651 100.359 260.781 103.258 259.042 105.836C257.306 108.413 254.761 110.411 251.413 111.828C255.212 112.859 258.142 114.809 260.202 117.676C262.293 120.511 263.34 123.926 263.34 127.921C263.34 134.526 261.216 139.6 256.968 143.144C252.75 146.688 246.697 148.46 238.811 148.46H213.171ZM225.386 116.71V138.698H238.955C242.787 138.698 245.781 137.748 247.938 135.847C250.095 133.946 251.172 131.304 251.172 127.921C251.172 120.608 247.439 116.871 239.971 116.71H225.386ZM225.386 107.721H237.362C241.162 107.721 244.122 106.867 246.246 105.159C248.403 103.419 249.483 100.971 249.483 97.8136C249.483 94.3341 248.484 91.821 246.489 90.2745C244.526 88.7281 241.45 87.9548 237.266 87.9548H225.386V107.721ZM286.905 148.46H275.17V74.2301H286.905V148.46ZM330.943 148.46C330.428 147.461 329.977 145.834 329.591 143.579C325.856 147.477 321.284 149.427 315.876 149.427C310.629 149.427 306.348 147.929 303.033 144.932C299.718 141.936 298.059 138.231 298.059 133.817C298.059 128.243 300.119 123.975 304.24 121.011C308.393 118.014 314.315 116.516 322.01 116.516H329.204V113.085C329.204 110.379 328.448 108.22 326.936 106.609C325.421 104.966 323.12 104.144 320.03 104.144C317.358 104.144 315.17 104.821 313.462 106.174C311.756 107.495 310.903 109.186 310.903 111.248H299.17C299.17 108.381 300.119 105.707 302.019 103.226C303.919 100.713 306.494 98.7479 309.745 97.3303C313.029 95.9127 316.682 95.204 320.705 95.204C326.822 95.204 331.699 96.7505 335.337 99.8434C338.974 102.904 340.842 107.221 340.937 112.795V136.378C340.937 141.082 341.598 144.836 342.917 147.639V148.46H330.943ZM318.05 140.003C320.368 140.003 322.541 139.439 324.568 138.311C326.629 137.184 328.174 135.67 329.204 133.769V123.91H322.879C318.532 123.91 315.264 124.667 313.076 126.181C310.886 127.696 309.792 129.838 309.792 132.609C309.792 134.864 310.534 136.668 312.013 138.022C313.528 139.342 315.538 140.003 318.05 140.003ZM354.362 148.46V78.0963H378.456C386.409 78.0963 392.459 79.691 396.613 82.8806C400.764 86.0702 402.841 90.8224 402.841 97.1371C402.841 100.359 401.972 103.258 400.235 105.836C398.496 108.413 395.954 110.411 392.604 111.828C396.403 112.859 399.332 114.809 401.393 117.676C403.486 120.511 404.533 123.926 404.533 127.921C404.533 134.526 402.406 139.6 398.158 143.144C393.941 146.688 387.888 148.46 380.001 148.46H354.362ZM366.579 116.71V138.698H380.148C383.977 138.698 386.971 137.748 389.128 135.847C391.285 133.946 392.363 131.304 392.363 127.921C392.363 120.608 388.629 116.871 381.161 116.71H366.579ZM366.579 107.721H378.553C382.352 107.721 385.312 106.867 387.439 105.159C389.596 103.419 390.673 100.971 390.673 97.8136C390.673 94.3341 389.676 91.821 387.68 90.2745C385.716 88.7281 382.642 87.9548 378.456 87.9548H366.579V107.721ZM428.095 148.46H416.362V74.2301H428.095V148.46ZM472.133 148.46C471.618 147.461 471.167 145.834 470.782 143.579C467.046 147.477 462.477 149.427 457.069 149.427C451.821 149.427 447.54 147.929 444.223 144.932C440.908 141.936 439.25 138.231 439.25 133.817C439.25 128.243 441.31 123.975 445.43 121.011C449.584 118.014 455.507 116.516 463.2 116.516H470.394V113.085C470.394 110.379 469.638 108.22 468.126 106.609C466.612 104.966 464.31 104.144 461.22 104.144C458.548 104.144 456.36 104.821 454.654 106.174C452.948 107.495 452.095 109.186 452.095 111.248H440.36C440.36 108.381 441.31 105.707 443.209 103.226C445.109 100.713 447.684 98.7479 450.935 97.3303C454.219 95.9127 457.872 95.204 461.896 95.204C468.013 95.204 472.889 96.7505 476.528 99.8434C480.164 102.904 482.033 107.221 482.129 112.795V136.378C482.129 141.082 482.789 144.836 484.109 147.639V148.46H472.133ZM459.24 140.003C461.558 140.003 463.731 139.439 465.759 138.311C467.819 137.184 469.364 135.67 470.394 133.769V123.91H464.069C459.724 123.91 456.457 124.667 454.267 126.181C452.079 127.696 450.983 129.838 450.983 132.609C450.983 134.864 451.724 136.668 453.206 138.022C454.718 139.342 456.731 140.003 459.24 140.003ZM549.199 125.553C548.492 133.06 545.723 138.924 540.894 143.144C536.064 147.332 529.643 149.427 521.628 149.427C516.027 149.427 511.084 148.106 506.803 145.464C502.555 142.79 499.271 139.004 496.953 134.107C494.635 129.21 493.428 123.523 493.331 117.048V110.475C493.331 103.838 494.505 97.9907 496.856 92.9326C499.207 87.8744 502.571 83.9761 506.947 81.2374C511.358 78.4989 516.445 77.1296 522.207 77.1296C529.964 77.1296 536.211 79.24 540.941 83.4606C545.673 87.681 548.426 93.6415 549.199 101.341H537.031C536.452 96.2832 534.97 92.6427 532.589 90.4197C530.238 88.1643 526.779 87.0366 522.207 87.0366C516.896 87.0366 512.806 88.9858 509.943 92.8843C507.11 96.7505 505.662 102.437 505.596 109.944V116.178C505.596 123.781 506.947 129.581 509.652 133.575C512.388 137.571 516.381 139.568 521.628 139.568C526.425 139.568 530.03 138.489 532.445 136.33C534.857 134.172 536.388 130.579 537.031 125.553H549.199ZM590.243 148.46C589.728 147.461 589.276 145.834 588.891 143.579C585.156 147.477 580.586 149.427 575.178 149.427C569.931 149.427 565.65 147.929 562.333 144.932C559.018 141.936 557.359 138.231 557.359 133.817C557.359 128.243 559.419 123.975 563.54 121.011C567.693 118.014 573.617 116.516 581.309 116.516H588.504V113.085C588.504 110.379 587.748 108.22 586.235 106.609C584.721 104.966 582.42 104.144 579.33 104.144C576.657 104.144 574.469 104.821 572.764 106.174C571.058 107.495 570.205 109.186 570.205 111.248H558.47C558.47 108.381 559.419 105.707 561.319 103.226C563.218 100.713 565.794 98.7479 569.045 97.3303C572.329 95.9127 575.982 95.204 580.005 95.204C586.122 95.204 590.999 96.7505 594.637 99.8434C598.276 102.904 600.142 107.221 600.239 112.795V136.378C600.239 141.082 600.898 144.836 602.219 147.639V148.46H590.243ZM577.35 140.003C579.667 140.003 581.841 139.439 583.868 138.311C585.929 137.184 587.474 135.67 588.504 133.769V123.91H582.179C577.834 123.91 574.566 124.667 572.376 126.181C570.188 127.696 569.094 129.838 569.094 132.609C569.094 134.864 569.834 136.668 571.315 138.022C572.827 139.342 574.84 140.003 577.35 140.003ZM639.882 106.899C638.337 106.641 636.742 106.512 635.102 106.512C629.725 106.512 626.103 108.574 624.237 112.698V148.46H612.504V96.1704H623.705L623.996 102.018C626.828 97.4753 630.755 95.204 635.778 95.204C637.451 95.204 638.836 95.4294 639.929 95.8805L639.882 106.899Z" fill="black"/>
    <path d="M708.642 129.999C708.642 127.261 707.676 125.167 705.746 123.717C703.813 122.235 700.338 120.688 695.315 119.077C690.294 117.434 686.318 115.823 683.388 114.245C675.405 109.928 671.414 104.112 671.414 96.7987C671.414 92.9971 672.475 89.614 674.601 86.65C676.756 83.6538 679.832 81.318 683.823 79.6427C687.846 77.9673 692.354 77.1296 697.344 77.1296C702.365 77.1296 706.84 78.048 710.767 79.8843C714.693 81.6885 717.736 84.2499 719.893 87.5684C722.081 90.8867 723.177 94.6561 723.177 98.8767H708.69C708.69 95.6549 707.676 93.1581 705.649 91.3861C703.62 89.5819 700.772 88.6798 697.101 88.6798C693.562 88.6798 690.809 89.4369 688.846 90.9512C686.88 92.4331 685.899 94.3984 685.899 96.8471C685.899 99.1345 687.043 101.051 689.328 102.598C691.645 104.144 695.041 105.594 699.516 106.947C707.757 109.428 713.76 112.505 717.526 116.178C721.294 119.851 723.177 124.426 723.177 129.903C723.177 135.992 720.874 140.776 716.272 144.256C711.669 147.703 705.472 149.427 697.682 149.427C692.274 149.427 687.348 148.444 682.906 146.479C678.462 144.481 675.067 141.759 672.716 138.311C670.398 134.864 669.24 130.869 669.24 126.326H683.775C683.775 134.091 688.411 137.973 697.682 137.973C701.125 137.973 703.813 137.28 705.746 135.895C707.676 134.478 708.642 132.512 708.642 129.999ZM733.027 148.46V78.0962H754.66C760.841 78.0962 766.362 79.4977 771.222 82.3007C776.115 85.0714 779.929 89.0342 782.667 94.1891C785.403 99.3118 786.771 105.143 786.771 111.683V114.921C786.771 121.461 785.419 127.277 782.714 132.367C780.042 137.458 776.26 141.404 771.367 144.207C766.473 147.01 760.954 148.428 754.804 148.46H733.027ZM747.513 89.8396V136.813H754.516C760.181 136.813 764.51 134.961 767.504 131.256C770.497 127.551 772.028 122.251 772.092 115.356V111.635C772.092 104.483 770.61 99.0701 767.65 95.3972C764.687 91.6923 760.357 89.8396 754.66 89.8396H747.513ZM819.364 120.237L811.832 128.356V148.46H797.346V78.0962H811.832V109.992L818.206 101.245L836.12 78.0962H853.937L828.973 109.364L854.662 148.46H837.424L819.364 120.237Z" fill="#2DBEFF"/>
    <defs>
        <linearGradient id="paint0_linear" x1="87.5603" y1="45.3628" x2="87.5603" y2="183.513" gradientUnits="userSpaceOnUse">
            <stop stop-color="#2DBEFF"/>
            <stop offset="1" stop-color="#9EF769"/>
        </linearGradient>
    </defs>
</svg>
